<?xml version="1.0" standalone="no"?>
<!DOCTYPE svg PUBLIC "-//W3C//DTD SVG 20010904//EN"
 "http://www.w3.org/TR/2001/REC-SVG-20010904/DTD/svg10.dtd">
<svg version="1.0" xmlns="http://www.w3.org/2000/svg"
 width="512.000000pt" height="512.000000pt" viewBox="0 0 512.000000 512.000000"
 preserveAspectRatio="xMidYMid meet">
<metadata>
Created by potrace 1.11, written by Peter Selinger 2001-2013
</metadata>
<g transform="translate(0.000000,512.000000) scale(0.100000,-0.100000)"
fill="#000000" stroke="none">
<path d="M0 4720 l0 -400 760 0 760 0 0 -830 0 -830 -760 0 -760 0 0 -1330 0
-1330 2560 0 2560 0 0 2560 0 2560 -2560 0 -2560 0 0 -400z m1370 -2796 c0
-200 2 -235 14 -225 7 6 98 113 202 236 l189 225 164 0 c154 0 163 -1 150 -17
-21 -27 -345 -409 -406 -480 l-54 -61 276 -311 275 -311 -188 0 -187 0 -215
247 -215 248 -3 -248 -2 -247 -135 0 -135 0 0 590 0 590 135 0 135 0 0 -236z"/>
</g>
</svg>
